<?xml version="1.0" standalone="no"?>
<!DOCTYPE svg PUBLIC "-//W3C//DTD SVG 20010904//EN"
 "http://www.w3.org/TR/2001/REC-SVG-20010904/DTD/svg10.dtd">
<svg version="1.0" xmlns="http://www.w3.org/2000/svg"
 width="416.000000pt" height="416.000000pt" viewBox="0 0 416.000000 416.000000"
 preserveAspectRatio="xMidYMid meet">

<g transform="translate(0.000000,416.000000) scale(0.100000,-0.100000)"
fill="#000000" stroke="none">
<path d="M2155 3643 c-32 -8 -54 -33 -67 -75 -9 -32 -15 -38 -39 -38 -42 0
-72 -44 -66 -96 2 -23 0 -49 -5 -58 -7 -12 -4 -18 9 -22 10 -3 32 -11 48 -19
17 -7 38 -16 47 -19 29 -9 76 14 89 42 10 24 16 27 51 24 49 -5 83 16 98 62
32 97 -71 221 -165 199z"/>
</g>
</svg>
